<?xml version="1.0" encoding="utf-8"?>
<!-- Generator: Adobe Illustrator 18.1.0, SVG Export Plug-In . SVG Version: 6.00 Build 0)  -->
<svg version="1.1" id="MTV" xmlns="http://www.w3.org/2000/svg" xmlns:xlink="http://www.w3.org/1999/xlink" x="0px" y="0px"
	 viewBox="0 0 595.3 841.9" enable-background="new 0 0 595.3 841.9" xml:space="preserve">
<g>
	<g>
		<g>
			<g>
				<g>
					<path fill="#FF0000" d="M17.4,464.5c1.7,2.2,4.8,2.4,7.6,2.8C23,465.1,20.6,464.2,17.4,464.5z"/>
					<path fill="#FF0000" d="M25.2,467.3L25.2,467.3L25.2,467.3L25.2,467.3z"/>
					<path fill="#FF0000" d="M579.7,367.2c-0.7,0-1.5,0-2.4,0.2C578.2,367.4,579,367.4,579.7,367.2z"/>
					<path fill="#FF0000" d="M163.6,473.8l0.4-3.7c6.9,0,2,4.3,8.2,3.3c2.4-5.2,10.4,0.6,12.6-2.2c0,0.4,3,0.6,2.8,2.2
						c0.9-2.8,3.2-0.7,5-1.3c0.7-0.7-0.6-0.9-1.1-1.7l4.5-0.9c1.7,0.9,2.2,2.6,0.2,3c11.5,1.1,67.3,3.7,79.7,2.4
						c-1.7-2.2-5.4-0.7-6.9-4.1c3.3-1.9,4.8,0.7,6.3-1.3c1.3,5,7.2,1.1,9.8,6.3l0.9-2.8l1.7,1.7c14.5-3,3.3-1.5,16.1-0.7
						c7.4-0.4,10.9-4.5,15.2-3c-0.6,0-2.2-1.9-0.4-2.4c0.4,2.4,5.2-1.9,6.1,0.7c1.9-0.4,8,0,5.9-3.3c1.1,1.7,6.5,2.4,3.3,3.9
						c1.9,0.2,3.7,0.6,5-0.2l-2.4-0.9c6.3-0.6,9.6,2.2,13.7-0.9l-2.2-1.3c3.7-0.2,6.9-0.6,8.3,3l-3.9,1.1c6.1,0,9.8-0.4,15-2
						l-1.9-0.2c6.5-3.3,40.8-6.1,46.9-10.4l-2.8-2.6l5.2-2.2c-0.6,0-2.6,8.5-3,7.6c11.1-0.2,69-2.2,79.2-0.6
						c4.1,1.5,0.7,4.1,0.7,4.6c5-0.9,2.2-2.8,6.5-2.6c1.1,0.6-0.2,2-0.9,2.4c1.9-0.4,3.7,0.6,3.7-0.6c-2.4-0.9-1.3-4.3-2.4-6.3
						l5.6,0.4l-0.2,2c1.3,0,3.2-5.6,8.5-4.5c9.1,0.9,19.1,0.2,28.2,0.6c-0.2,1.3-2,2-4.1,2.6c1.3,0,3.2-0.2,4.3,0.6
						c-2.2-2.2,3.9-1.5,2-2.4c6.7-5,15.4-0.4,21.3-3.9c0.6-4.5,12.8-77.7,12.8-83.1c1.9,0.2,3.7,0.2,4.3,0.6
						c-0.6-1.3-4.1-1.9-6.1-1.1l-0.4,3c-4.5,0.9-1.1-1.7-5.4-1.5c-0.2-2.4,3.7-2.8,7.2-3.2c-3.2-0.2-6.3-2-7.6,0.6
						c-3-0.9,0.4-3-3.3-3.9c-2.6,0.7-5.9,3-8.9,1.7v-0.4c-7-2.4-10.9,3.5-17.4,1.1l0.7-0.7c-2.2-1.3-6.9,0.6-10.9-0.9
						c1.1,0.6,2.2,2.2-0.4,2.4c-4.8-1.5-8,0-11.5-1.9l-3.3,2.2c-16.5-0.4-82.2,2.8-98.8,3.2l0.7-0.4c-25.4,1.1-77.5,0.9-103.8,4.1
						c-4.1-2.2-9.6-1.7-13.9-2.4c2.4,0.9,1.5,2.6-0.4,2.4c-13-0.2-0.9,1.5-13.9,2.6c-15,2-72.5-0.4-85.9-2.2
						c-7.2,3.3-16.1,0.7-23.2,3l0.7-0.7c-7.6,1.3-50.3-1.9-59-0.6l1.1,0.6c-7.6,2-6.7-1.7-12.6-2.8c0.7,3.7-5.7,5.9-8.3,6.1l0.2-0.7
						c-3.7,0.6-12.2,3.9-18.5,4.5l0.2-2c-5.2,2.2-15,1.3-18.7,1.5c-8.5-0.9-21.7-4.5-33-1.7l-7.4-5.9l-0.2,0c0,0-11.9,70.8,3.2,85.9
						l-0.2,2l3-0.2c3.5,0.9,5.2-1.3,5,0.7l-4.8-0.2c3.5,0.6,1.1,1.7-0.4,2.8c1.5,0.2,3,0.4,4.1,1.1c0.7-0.7-0.6-0.9-1.1-1.3
						c1.9-0.7,4.6-2.6,7-1.7c3.7,0.2,0.2,3.3,4.5,3.5c22.6,1.7,44.5,3.9,67.3,3.5c0.6,0.9-0.2,0.7-0.7,1.1c6.9-0.9,13-0.6,19.3-1.5
						c1.7,0.9,2.2,2.2,2.8,3C127.4,473.4,163,473.2,163.6,473.8z"/>
				</g>
			</g>
		</g>
	</g>
</g>
</svg>
